<svg width="180" height="180" viewBox="0 0 180 180" fill="none" xmlns="http://www.w3.org/2000/svg">
  <defs>
    <linearGradient id="grad" x1="0" y1="0" x2="1" y2="1">
      <stop offset="0%" stop-color="#428177" />
      <stop offset="100%" stop-color="#002623" />
    </linearGradient>
  </defs>
  <circle cx="90" cy="90" r="88" fill="url(#grad)" stroke="#ffffff" stroke-width="4" />
  <path
    d="M118 58c-12.5-12-27.8-18-45.8-18-8.4 0-16.5 1.4-24 4.2-2.5 1-4 3.6-3.5 6.3 0.5 2.6 2.8 4.6 5.6 4.7 11.6 0.4 21.5 3.6 30 9.5 9.8 6.8 16.5 16.6 19.9 29.1-11.4-11.6-26.3-16.7-44.4-15.7-3.7 0.2-6.4 3.3-6 7 0.3 3.1 2.8 5.5 5.9 5.8 14.2 1.3 26.1 6.6 35.7 15.6-11.2-4.1-21.9-5-32.1-2.7-3.2 0.7-5.2 3.8-4.5 7 0.6 2.8 3 4.6 5.7 4.8 17.7 1 31.6 8.2 42 21.6 1.5 2 4 2.9 6.4 2.3 2.4-0.7 4.1-2.7 4.4-5.2 3.4-29.7-4.6-54.1-23.7-73.6 10.6 3.4 19.7 9.4 27.2 17.9 2 2.3 5.4 2.7 7.9 1 2.5-1.7 3.5-5 2.2-7.7-6.4-13.2-15.1-23.8-26.1-31.7z"
    fill="#ffffff"
    opacity="0.95"
  />
  <path
    d="M131 130c-16.3 10.8-35.9 17.3-56.9 17.3-5.7 0-11.2-0.5-16.5-1.4-3.2-0.6-6.2 1.5-6.8 4.6-0.6 3.2 1.5 6.3 4.7 6.9 6.3 1.1 12.8 1.7 19.3 1.7 23.4 0 45.4-6.9 65.1-20.4 2.8-1.9 3.6-5.7 1.7-8.5-1.9-2.8-5.7-3.6-8.6-1.6z"
    fill="#d7ede9"
    opacity="0.8"
  />
</svg>
