<svg width="80" height="80" viewBox="0 0 80 80" xmlns="http://www.w3.org/2000/svg" role="img" aria-labelledby="title desc">
  <title id="title">شعار الشاهين</title>
  <desc id="desc">شعار مبسط لطائر الشاهين يعكس الهوية البصرية لمحافظة درعا</desc>
  <defs>
    <linearGradient id="wing" x1="0%" y1="0%" x2="100%" y2="100%">
      <stop offset="0%" stop-color="#125943" />
      <stop offset="100%" stop-color="#0b3d2e" />
    </linearGradient>
    <linearGradient id="sun" x1="0%" y1="0%" x2="0%" y2="100%">
      <stop offset="0%" stop-color="#ffd166" />
      <stop offset="100%" stop-color="#d7a32e" />
    </linearGradient>
  </defs>
  <circle cx="40" cy="40" r="36" fill="#f5f7f6" stroke="#0b3d2e" stroke-width="2" />
  <path d="M60 34c-6 0-10-8-20-8s-14 8-20 8c4 6 9 10 20 10s16-4 20-10z" fill="url(#sun)" opacity="0.45" />
  <path d="M18 48c6-8 11-12 22-12 9 0 14 3 22 12-4 10-12 16-22 16-10 0-18-6-22-16z" fill="url(#wing)" />
  <path d="M34 28c4-6 12-10 20-10-4 6-4 14-2 20-6-2-12-6-18-10z" fill="#0b3d2e" opacity="0.8" />
  <circle cx="50" cy="28" r="3" fill="#0b3d2e" />
</svg>
